<svg width="78" height="78" viewBox="0 0 78 78" fill="none" xmlns="http://www.w3.org/2000/svg">
<path d="M27.0395 39.6193C26.7786 41.8758 26.8497 49.8438 27.1254 50.9963C30.0244 51.2651 37.26 51.1659 38.3775 50.8449V39.6193H27.0395ZM25.507 52.546C22.9251 52.2707 15.233 52.3557 14.0918 52.656C13.825 56.0194 13.9347 62.8304 14.2667 63.897H25.507V52.546ZM14.08 50.9697C16.6855 51.2399 24.3598 51.154 25.504 50.8555V39.6308H14.08V50.9697ZM26.9328 63.7088C28.068 64.0644 36.7443 64.1163 38.339 63.7844C38.582 61.5267 38.5079 53.6612 38.2352 52.5075C35.0813 52.2404 28.068 52.3477 26.9328 52.6883V63.7088ZM14.0829 25.5023C16.5551 25.7548 24.3302 25.6792 25.507 25.4015V13.8641H14.0829V25.5023ZM14.077 38.3959C17.0501 38.6475 24.3509 38.5601 25.4981 38.277V26.7488H14.077V38.3959ZM52.4426 63.8576C55.06 64.1412 63.0456 64.0487 64.1483 63.7381C64.3943 60.0277 64.2935 53.6156 63.9823 52.5113H52.4426V63.8576ZM51.248 63.9263C51.5148 60.3504 51.4111 53.6064 51.1028 52.5084H39.5928V63.9263H51.248ZM52.5197 39.5801C52.244 41.9561 52.3211 49.8787 52.6057 51.0016H64.086C64.3498 48.6853 64.2787 40.7751 63.9882 39.5801H52.5197ZM26.9387 38.3677C29.5027 38.6398 37.26 38.5586 38.4546 38.2507C38.4546 34.4356 38.4575 30.6048 38.4516 26.7965C35.8313 26.517 28.0977 26.6018 26.9387 26.9082V38.3677ZM51.2066 51.0562C51.4852 48.4897 51.4022 40.7297 51.0821 39.544C47.2702 39.5452 43.4404 39.5416 39.6313 39.5464C39.3587 42.2243 39.4417 49.8962 39.7381 51.0562H51.2066ZM26.9416 25.4887C29.482 25.7702 37.2719 25.6855 38.4546 25.3651C38.4546 21.553 38.4575 17.7237 38.4516 13.9157C35.7987 13.6436 28.1036 13.7258 26.9416 14.023V25.4887ZM64.0801 38.4655C64.3528 36.0629 64.2787 27.8738 63.9971 26.7497H52.5197C52.244 29.0112 52.3181 37.3064 52.6235 38.4655H64.0801ZM51.1977 38.4673C51.4734 36.129 51.3992 27.8664 51.1117 26.7476H39.6373C39.3705 29.0181 39.4417 37.294 39.7351 38.4673H51.1977ZM51.3074 13.9172C48.7196 13.6398 40.6719 13.7248 39.5899 14.0138V25.4982C42.1509 25.7774 50.1691 25.6876 51.3074 25.3696V13.9172ZM52.416 25.491C55.0778 25.7836 63.0604 25.6908 64.1275 25.3832V13.9036C61.439 13.6321 53.5483 13.7228 52.416 14.0313V25.491ZM39.5009 12.7024H51.1917C51.4971 11.3302 51.2985 9.96223 51.334 8.60993C51.3696 7.23392 51.343 5.85642 51.343 4.47923V0.377562C51.9476 0.0844565 52.2944 0.149964 52.3596 0.757223C52.4071 1.19287 52.3774 1.6371 52.3774 2.0778V12.4653C53.5364 12.8082 61.5339 12.9025 64.2135 12.599V0.413124C64.8063 0.069062 65.1353 0.14404 65.2272 0.645779C65.2954 1.01978 65.2628 1.41334 65.2628 1.79833C65.2658 4.82773 65.2628 7.85687 65.2628 10.886V12.6245C65.7638 12.6677 66.1817 12.7347 66.6026 12.7359C69.798 12.7448 72.9934 12.7386 76.1888 12.743C76.6275 12.7436 77.087 12.7039 77.496 12.826C77.668 12.8773 77.7243 13.3023 77.9051 13.7207H65.5592C65.2006 14.9219 65.1087 23.0241 65.4021 25.5515C65.8052 25.5758 66.2291 25.622 66.653 25.6229C69.8484 25.6292 73.0439 25.6253 76.2363 25.6277C76.6216 25.628 77.0306 25.5716 77.3834 25.6849C77.5968 25.753 77.7183 26.098 78 26.4767C76.4349 26.8031 75.0654 26.6199 73.7137 26.6528C72.3354 26.6866 70.9571 26.6605 69.5816 26.6605H65.3517C65.1798 28.6577 65.2865 30.5686 65.2687 32.4742C65.2479 34.4006 65.2628 36.3273 65.2628 38.3802C65.7193 38.4228 66.1372 38.4946 66.5552 38.4954C69.7506 38.5052 72.946 38.5005 76.1385 38.5014C76.5238 38.5017 76.924 38.4534 77.2915 38.5366C77.496 38.5829 77.6502 38.8541 77.8281 39.0239C77.6502 39.1931 77.4931 39.4628 77.2856 39.509C76.918 39.5923 76.5208 39.5437 76.1355 39.5437C73.1061 39.5443 70.0767 39.5443 67.0443 39.5443H65.3488V50.9782C65.7489 51.0162 66.1639 51.0891 66.5818 51.0903C69.8307 51.1 73.0824 51.0965 76.3311 51.0947C76.9299 51.0944 77.5554 51.0251 77.8251 51.7346C77.5257 52.5561 76.8647 52.4117 76.2808 52.4132C73.2513 52.4209 70.2219 52.4168 67.1925 52.4168H65.3429V63.8706C65.7519 63.9088 66.1699 63.9814 66.5878 63.9823C69.7832 63.9921 72.9757 63.9829 76.1711 63.9918C76.7579 63.9936 77.416 63.8285 77.8666 64.6649C77.6265 64.8587 77.3923 65.166 77.09 65.2617C76.7373 65.3735 76.3252 65.3059 75.9398 65.3059C72.9668 65.3077 69.9907 65.3071 67.0176 65.3071H65.2628V76.0043C65.2628 76.3899 65.2598 76.7751 65.2598 77.1607C65.2569 77.5166 65.1769 77.8521 64.7529 77.8616C64.3261 77.8708 64.2283 77.5406 64.2283 77.1826C64.2223 75.3653 64.2223 73.5478 64.2223 71.7301C64.2194 69.6485 64.2194 67.5663 64.2194 65.3969H52.416C52.4041 66.7468 52.3834 68.1018 52.3774 69.4568C52.3715 70.8336 52.3774 72.2105 52.3774 73.5875V77.7238C51.7668 77.9307 51.4052 77.9028 51.3548 77.2769C51.3222 76.8385 51.343 76.3961 51.343 75.9557V65.5786C50.1632 65.246 41.8516 65.1648 39.5009 65.4662V67.0479C39.5009 70.1322 39.5009 73.2167 39.498 76.301C39.498 76.6856 39.5513 77.0958 39.4328 77.4446C39.3646 77.6527 39.0089 77.7644 38.6621 78C38.2856 76.4675 38.502 75.0965 38.4635 73.7433C38.4249 72.3673 38.4546 70.9898 38.4546 69.6129V65.5353C37.0673 65.2451 28.6698 65.2188 26.9031 65.5006V67.0829C26.9031 70.1674 26.9031 73.2517 26.9001 76.3359C26.9001 76.926 27.0098 77.5697 26.2717 77.8592C25.4536 77.6079 25.584 76.9479 25.584 76.3638C25.5781 73.2795 25.5811 70.1953 25.5811 67.111V65.4016H14.1304C14.0918 65.7679 14.0147 66.1828 14.0147 66.5983C14.0029 69.8476 14.0088 73.0973 14.0058 76.3466C14.0058 76.9364 14.1096 77.5759 13.3952 77.8557C12.6364 77.6387 12.6898 77.0614 12.6898 76.5117C12.6868 74.0883 12.6868 71.6649 12.6868 69.2419V65.3738C12.1236 65.3471 11.6968 65.3103 11.2729 65.3098C8.07745 65.3047 4.88206 65.3112 1.68661 65.3032C1.10564 65.3018 0.438696 65.4618 0.145243 64.6669C0.314223 63.9539 0.886292 63.9883 1.43767 63.988C3.75272 63.9874 6.06478 63.9877 8.3798 63.9877H12.4556C12.7461 62.6366 12.7816 54.2753 12.506 52.4168H10.9261C7.84029 52.4168 4.75755 52.4185 1.67181 52.4153C1.08494 52.4147 0.438697 52.5315 0.133411 51.8063C0.367559 50.9744 1.02861 51.0992 1.61555 51.098C4.47894 51.0926 7.34529 51.0956 10.2087 51.0956H12.6809C12.6838 49.1212 12.6868 47.2684 12.6868 45.4158C12.6898 43.5446 12.6868 41.673 12.6868 39.6708C12.2303 39.6261 11.8153 39.5508 11.3973 39.5496C8.20195 39.5395 5.00654 39.5443 1.81409 39.5437C1.4258 39.5437 1.0286 39.5929 0.661011 39.5099C0.456499 39.4636 0.299388 39.1931 0.121542 39.0236C0.299388 38.8532 0.456496 38.5817 0.663978 38.5351C1.03157 38.4522 1.42877 38.5017 1.81409 38.5014C4.84353 38.5005 7.87293 38.5008 10.9053 38.5008H12.6038V26.6824C8.49837 26.6279 4.39593 26.6866 0.367558 26.6495C0.0207702 26.1134 0.0504045 25.7744 0.566172 25.6686C0.936697 25.5924 1.33389 25.6277 1.71925 25.6277C4.74865 25.6253 7.77806 25.6265 10.8075 25.6265H12.4229C12.749 24.4167 12.8202 15.96 12.5178 13.7841H10.9349C7.90557 13.7841 4.87613 13.7856 1.84376 13.7824C1.40503 13.7818 0.945597 13.8289 0.53357 13.716C0.334957 13.6617 0.222315 13.2866 0 12.9445C1.52957 12.5741 2.90196 12.7875 4.25366 12.7492C5.63198 12.7104 7.01034 12.7406 8.38573 12.7406H12.592C12.6275 12.2084 12.6838 11.7869 12.6838 11.3652C12.6927 8.22615 12.6868 5.08678 12.6898 1.94739C12.6898 1.61727 12.6572 1.27881 12.7135 0.95844C12.8172 0.401287 13.1136 0.056908 13.8576 0.270876C14.1778 1.57488 13.9584 2.94319 13.9999 4.29252C14.0385 5.66823 14.0088 7.04604 14.0088 8.42293V12.5056C15.3101 12.7963 23.5595 12.8449 25.5811 12.5723V11.3285C25.5811 8.13398 25.5751 4.93978 25.584 1.74558C25.584 1.16293 25.4358 0.501441 26.2095 0.194705C26.912 0.368682 26.9031 0.929688 26.9031 1.48833C26.9001 3.58154 26.9031 5.67417 26.9031 7.76737V12.5092C28.237 12.799 36.5486 12.8384 38.4546 12.5631V10.9802C38.4546 7.8957 38.4546 4.81144 38.4575 1.7272C38.4575 1.34254 38.4042 0.930882 38.5228 0.583844C38.5939 0.382012 38.9615 0.283637 39.4209 0C39.5691 2.32555 39.4802 4.4013 39.495 6.47259C39.5128 8.50031 39.5009 10.5286 39.5009 12.7024Z" fill="#301E67"/>
</svg>
